<?xml version="1.0" encoding="UTF-8"?>
<svg xmlns="http://www.w3.org/2000/svg" version="1.1" viewBox="0 0 1000 1000">
  <defs>
    <style>
      .cls-1 {
        fill: #fff;
      }

      .cls-2 {
        fill: #f5e200;
      }

      .cls-3 {
        display: none;
      }
    </style>
  </defs>
  <!-- Generator: Adobe Illustrator 28.6.0, SVG Export Plug-In . SVG Version: 1.2.0 Build 709)  -->
  <g>
    <g id="Layer_1" class="cls-3">
      <rect class="cls-2" width="1000" height="1000"/>
    </g>
    <g id="Layer_2" class="cls-3">
      <g>
        <path d="M490.7,816.7c51.7-17.7,101.2-31.8,148.3-51.6,49.4-20.8,85.4-58.4,109.1-106.9,21.6-44.2,19.7-87.4-7.5-128.5-9.7-14.7-21.1-28.5-33.3-41.2-9.4-9.7-9.7-16.6-3.9-29.2,14.5-31.4,28.4-63.4,37.9-96.6,8-27.9,2.4-56.8-11.4-83.1-18-34.4-45.2-45.6-83.1-34.1-45.4,13.6-90.6,27.9-136,41.2-7.7,2.2-16.9,2.4-24.8.6-38.3-8.8-76.3-18.6-114.4-31.1,48.9-15,97.8-30,146.8-45,3.3-1,6.5-2,9.8-3,30.1-9.1,60.2-25.6,90.1-25.2,31.8.5,63.3,17.3,95.1,26.6,24.5,7.1,42.1,22.1,54.2,44.2,27.5,49.9,27.1,101.7,10,154.3-5.6,17.3-14.5,33.5-20.6,50.7-1.8,5.1-1.6,13.8,1.6,17.5,81.2,96.1,54.4,195.4-19.8,273.3-32.1,33.7-71.1,57.1-115.4,71.4-40.2,13-80.4,26.1-120.8,38.3-7.1,2.1-15.8,2.3-22.9.3-38.4-11-76.5-23.2-114.8-34.5-8.7-2.6-13.1-5.8-13.1-16.2.4-174.3.3-348.6.3-522.8,0-2.8.6-5.6,1-10.1,45.6,10.6,91.3,21.2,136.9,31.9.4,104.9.6,209.9.7,314.8,0,64.7,0,129.4,0,194.1Z"/>
        <path d="M193.9,236.4c45.8,11.3,91,22.5,136.9,33.8v542.6c-3.5-.5-6.8-.6-9.8-1.5-38.8-11.7-77.5-23.6-116.4-35.3-7.5-2.3-12.8-4.6-12.8-14.7.3-172,.3-344,.4-516,0-2.2.8-4.4,1.7-9Z"/>
        <path d="M588.3,171.7c-40.5,12.6-76.9,23.9-113.3,35.1-43.1,13.2-86.2,26.5-129.5,39-7.7,2.2-16.9,2.5-24.8.7-38.3-8.8-76.3-18.6-114.3-31.1,56.6-17.3,113.2-34.7,169.7-52,13.6-4.2,27.9-7,40.8-12.8,35.5-15.9,69.9-14.9,105.4.4,19.7,8.5,41.1,13.1,66,20.8Z"/>
        <path d="M568.7,688.2v-57.6c42.6-4.6,68.1-26.4,68-71.1,31.3-4.7,47.5,9.4,45.2,39.3-2.7,34.4-17.4,61.5-51.9,73.1-19.2,6.5-39.2,10.5-61.3,16.2Z"/>
        <path d="M569.2,477.3v-55.5c36.7-9.7,56.7-32.2,52.6-71.6,25-9.8,44.5,1.8,46.6,27.2,3.3,38.3-10.4,64.3-45.1,80.7-16.7,7.9-34.9,12.6-54.1,19.3Z"/>
      </g>
    </g>
    <g id="Layer_3">
      <g>
        <path class="cls-1" d="M569.4,423c3.5-.4,29.9-3.9,45-28,12.2-19.5,8.9-39.4,8-44,6-2.7,17-6.3,27-2,18.9,8.2,21.2,38.9,19,54-5,34.6-44.4,63.4-98,75-.3-18.3-.7-36.7-1-55"/>
        <path class="cls-1" d="M569.4,635.4c4-.5,33.9-4.5,51-31.7,13.9-22.1,10.1-44.6,9.1-49.9,6.8-3,19.2-7.2,30.6-2.3,21.4,9.3,24,44.1,21.5,61.2-5.6,39.2-50.3,71.9-111.1,85-.4-20.8-.8-41.6-1.1-62.4"/>
        <path class="cls-1" d="M332.4,270.8c-45.3-10.9-90.7-21.9-136-32.8-1.7,178.7-3.3,357.3-5,536,47,14.2,94,28.4,141,42.6V270.8Z"/>
        <path class="cls-1" d="M352.4,275.7v547c45.7,13.8,91.3,27.6,137,41.4.3-185,.7-370,1-555-46-11.1-92-22.2-138-33.3Z"/>
        <path class="cls-1" d="M808.4,593c-3.2-62.9-41.3-105.1-54-118,1.7-5.6,4.2-14.3,7-25,17.4-67.6,32.3-125.4,10.6-175-6.4-14.7-21.6-41.3-60.4-64.9-31.7-9.7-63.3-19.5-95-29.2-81.7,26.2-163.3,52.5-245,78.7,42.6,11.1,85.2,22.2,127.8,33.4,57.7-17.7,115.3-35.3,173-53,9.8,3.3,44,16.2,61.6,51,15,29.7,9.8,59.2,7.4,73-3.2,18.1-9.5,32.7-22,61-14.3,32.2-20.9,37.9-19,51,2.9,20.5,21.5,24.1,39,47,26.4,34.4,23.7,77.6,23,89-3.4,54.9-39,90.9-56,108-27.2,27.5-53.9,39.5-95,58-29.4,13.3-70.8,29-123,40,.3,15.3.7,30.7,1,46,67.5-9.7,117.9-31.1,149-47,45.6-23.4,110.7-56.8,147-129,9.3-18.6,25.2-51.1,23-95Z"/>
        <path class="cls-1" d="M460.4,136c-84.7,26.7-169.3,53.3-254,80h-2c41.9,10.9,83.8,21.9,125.7,32.8,86.3-25.3,172.6-50.6,259-75.8-42.9-12.3-85.8-24.6-128.6-37Z"/>
      </g>
    </g>
  </g>
</svg>